<svg xmlns="http://www.w3.org/2000/svg" width="51.579" height="79.967" viewBox="0 0 51.579 79.967">
  <g id="Group_1" data-name="Group 1" transform="translate(-40 -40)" style="mix-blend-mode: multiply;isolation: isolate">
    <path id="Path_1" data-name="Path 1" d="M254.262,86.155a82.986,82.986,0,0,1,14.095,0l-21.392,79.367a82.987,82.987,0,0,1-14.095,0Z" transform="translate(-192.87 -45.855)" fill="#6526d1" style="mix-blend-mode: screen;isolation: isolate"/>
    <path id="Path_2" data-name="Path 2" d="M391.585,368.621a82.99,82.99,0,0,1,0-14.095l22.691-10.3-22.691-10.3a82.989,82.989,0,0,1,0-14.095l35.685,16.293a108.144,108.144,0,0,1,0,16.093L391.585,368.62h0Z" transform="translate(-335.991 -257.25)" fill="#6526d1" style="mix-blend-mode: screen;isolation: isolate"/>
    <path id="Path_3" data-name="Path 3" d="M325.325,192.611a82.989,82.989,0,0,1,0-14.095l22.691-10.3-22.691-10.3a82.989,82.989,0,0,1,0-14.095l35.685,16.293a108.144,108.144,0,0,1,0,16.093L325.325,192.61h0Z" transform="translate(-276.128 -98.233)" fill="#6526d1" style="mix-blend-mode: screen;isolation: isolate"/>
  </g>
</svg>
